<svg width="745" height="873" viewBox="0 0 745 873" fill="none" xmlns="http://www.w3.org/2000/svg">
<circle cx="45" cy="383" r="447.5" stroke="#BCBDED" stroke-opacity="0.5"/>
<g filter="url(#filter0_d_212_942)">
<rect x="63" y="788" width="60" height="60" rx="30" fill="white"/>
</g>
<path d="M81 826H105V828.667H81V826ZM105.679 813.369C105.499 812.829 105.112 812.383 104.603 812.128C104.094 811.873 103.504 811.831 102.964 812.011L97 814L86.3333 810L83.6666 811.333L91.6666 816.667L86.3333 819.333L81 816.667L79.6666 818L85 823.333L104.396 816.06C104.916 815.865 105.341 815.475 105.58 814.973C105.819 814.472 105.855 813.897 105.679 813.369Z" fill="#F67366"/>
<g filter="url(#filter1_d_212_942)">
<rect x="415" y="157" width="60" height="60" rx="30" fill="white"/>
</g>
<path d="M433 195H457V197.667H433V195ZM457.679 182.369C457.499 181.829 457.112 181.383 456.603 181.128C456.094 180.873 455.504 180.831 454.964 181.011L449 183L438.333 179L435.667 180.333L443.667 185.667L438.333 188.333L433 185.667L431.667 187L437 192.333L456.396 185.06C456.916 184.865 457.341 184.475 457.58 183.973C457.819 183.472 457.855 182.897 457.679 182.369Z" fill="#F67366"/>
<g filter="url(#filter2_d_212_942)">
<rect x="660" y="578" width="60" height="60" rx="30" fill="white"/>
</g>
<path d="M678 619.667V602.333L690 597L702 602.333V619.667" stroke="#F67366" stroke-width="2" stroke-linecap="round" stroke-linejoin="round"/>
<path d="M691.333 609H696.667V619.667H683.333V611.667H691.333" stroke="#F67366" stroke-width="2" stroke-linecap="round" stroke-linejoin="round"/>
<path d="M691.333 619.667V607.667C691.333 607.313 691.193 606.974 690.943 606.724C690.693 606.474 690.354 606.333 690 606.333H687.333C686.98 606.333 686.641 606.474 686.391 606.724C686.14 606.974 686 607.313 686 607.667V611.667" stroke="#F67366" stroke-width="2" stroke-linecap="round" stroke-linejoin="round"/>
<defs>
<filter id="filter0_d_212_942" x="38" y="763" width="110" height="110" filterUnits="userSpaceOnUse" color-interpolation-filters="sRGB">
<feFlood flood-opacity="0" result="BackgroundImageFix"/>
<feColorMatrix in="SourceAlpha" type="matrix" values="0 0 0 0 0 0 0 0 0 0 0 0 0 0 0 0 0 0 127 0" result="hardAlpha"/>
<feOffset/>
<feGaussianBlur stdDeviation="12.5"/>
<feComposite in2="hardAlpha" operator="out"/>
<feColorMatrix type="matrix" values="0 0 0 0 0.592 0 0 0 0 0.592 0 0 0 0 0.592 0 0 0 0.25 0"/>
<feBlend mode="normal" in2="BackgroundImageFix" result="effect1_dropShadow_212_942"/>
<feBlend mode="normal" in="SourceGraphic" in2="effect1_dropShadow_212_942" result="shape"/>
</filter>
<filter id="filter1_d_212_942" x="390" y="132" width="110" height="110" filterUnits="userSpaceOnUse" color-interpolation-filters="sRGB">
<feFlood flood-opacity="0" result="BackgroundImageFix"/>
<feColorMatrix in="SourceAlpha" type="matrix" values="0 0 0 0 0 0 0 0 0 0 0 0 0 0 0 0 0 0 127 0" result="hardAlpha"/>
<feOffset/>
<feGaussianBlur stdDeviation="12.5"/>
<feComposite in2="hardAlpha" operator="out"/>
<feColorMatrix type="matrix" values="0 0 0 0 0.592 0 0 0 0 0.592 0 0 0 0 0.592 0 0 0 0.25 0"/>
<feBlend mode="normal" in2="BackgroundImageFix" result="effect1_dropShadow_212_942"/>
<feBlend mode="normal" in="SourceGraphic" in2="effect1_dropShadow_212_942" result="shape"/>
</filter>
<filter id="filter2_d_212_942" x="635" y="553" width="110" height="110" filterUnits="userSpaceOnUse" color-interpolation-filters="sRGB">
<feFlood flood-opacity="0" result="BackgroundImageFix"/>
<feColorMatrix in="SourceAlpha" type="matrix" values="0 0 0 0 0 0 0 0 0 0 0 0 0 0 0 0 0 0 127 0" result="hardAlpha"/>
<feOffset/>
<feGaussianBlur stdDeviation="12.5"/>
<feComposite in2="hardAlpha" operator="out"/>
<feColorMatrix type="matrix" values="0 0 0 0 0.592 0 0 0 0 0.592 0 0 0 0 0.592 0 0 0 0.25 0"/>
<feBlend mode="normal" in2="BackgroundImageFix" result="effect1_dropShadow_212_942"/>
<feBlend mode="normal" in="SourceGraphic" in2="effect1_dropShadow_212_942" result="shape"/>
</filter>
</defs>
</svg>
